<svg width="394" height="49" viewBox="0 0 394 49" fill="none" xmlns="http://www.w3.org/2000/svg">
<path d="M4.02441 24.6562L24.9434 33.1328V39.0664L0.179688 27.5928V24.1113L4.02441 24.6562ZM24.9434 17.6934L4.05469 26.291L0.179688 26.7148V23.2031L24.9434 11.7598V17.6934ZM62.876 18.874V25.958H39.8682V18.874H62.876ZM42.5625 0.921875V45H33.4805V0.921875H42.5625ZM69.3545 0.921875V45H60.3027V0.921875H69.3545ZM93.1494 35.7969L103.533 0.921875H113.645L98.2959 45H91.6357L93.1494 35.7969ZM83.583 0.921875L93.9365 35.7969L95.5107 45H88.79L73.5322 0.921875H83.583ZM147.339 37.916V45H123.877V37.916H147.339ZM126.844 0.921875V45H117.762V0.921875H126.844ZM144.281 18.874V25.7764H123.877V18.874H144.281ZM147.309 0.921875V8.03613H123.877V0.921875H147.309ZM160.114 0.921875L168.409 16.3008L176.704 0.921875H187.088L174.282 22.7793L187.421 45H176.946L168.409 29.3184L159.872 45H149.337L162.506 22.7793L149.67 0.921875H160.114ZM219.904 40.2471V45H197.865V40.2471H219.904ZM199.016 0.921875V45H193.173V0.921875H199.016ZM243.518 4.82715L228.926 45H222.962L239.764 0.921875H243.608L243.518 4.82715ZM255.748 45L241.126 4.82715L241.035 0.921875H244.88L261.742 45H255.748ZM254.991 28.6826V33.4658H230.228V28.6826H254.991ZM283.357 24.3838H272.187L272.126 19.6914H282.268C283.943 19.6914 285.406 19.4089 286.657 18.8438C287.909 18.2786 288.877 17.4714 289.563 16.4219C290.27 15.3522 290.623 14.0807 290.623 12.6074C290.623 10.9928 290.31 9.68099 289.685 8.67188C289.079 7.64258 288.141 6.89583 286.869 6.43164C285.618 5.94727 284.023 5.70508 282.086 5.70508H273.488V45H267.646V0.921875H282.086C284.346 0.921875 286.365 1.15397 288.141 1.61816C289.917 2.06217 291.42 2.76855 292.651 3.7373C293.903 4.68587 294.851 5.89681 295.497 7.37012C296.143 8.84342 296.466 10.6094 296.466 12.668C296.466 14.4844 296.002 16.1292 295.073 17.6025C294.145 19.0557 292.853 20.2464 291.198 21.1748C289.563 22.1032 287.646 22.6986 285.446 22.9609L283.357 24.3838ZM283.085 45H269.886L273.186 40.2471H283.085C284.942 40.2471 286.516 39.9242 287.808 39.2783C289.119 38.6325 290.118 37.7243 290.805 36.5537C291.491 35.363 291.834 33.9603 291.834 32.3457C291.834 30.7109 291.541 29.2982 290.956 28.1074C290.371 26.9167 289.452 25.9984 288.201 25.3525C286.95 24.7067 285.335 24.3838 283.357 24.3838H275.032L275.093 19.6914H286.476L287.717 21.3867C289.836 21.5684 291.632 22.1738 293.105 23.2031C294.579 24.2122 295.699 25.5039 296.466 27.0781C297.253 28.6523 297.646 30.388 297.646 32.2852C297.646 35.0299 297.041 37.3509 295.83 39.248C294.639 41.125 292.954 42.5579 290.774 43.5469C288.595 44.5156 286.032 45 283.085 45ZM329.767 33.8594C329.767 32.8301 329.605 31.9219 329.282 31.1348C328.979 30.3275 328.435 29.6009 327.647 28.9551C326.881 28.3092 325.811 27.6937 324.438 27.1084C323.086 26.5231 321.371 25.9277 319.292 25.3223C317.112 24.6764 315.145 23.96 313.389 23.1729C311.633 22.3656 310.129 21.4473 308.878 20.418C307.627 19.3887 306.668 18.208 306.002 16.876C305.336 15.5439 305.003 14.0202 305.003 12.3047C305.003 10.5892 305.356 9.00488 306.062 7.55176C306.769 6.09863 307.778 4.83724 309.09 3.76758C310.422 2.67773 312.006 1.83008 313.843 1.22461C315.679 0.619141 317.728 0.316406 319.988 0.316406C323.298 0.316406 326.104 0.952148 328.404 2.22363C330.725 3.47493 332.491 5.11979 333.702 7.1582C334.913 9.17643 335.519 11.3359 335.519 13.6367H329.706C329.706 11.9818 329.353 10.5186 328.646 9.24707C327.94 7.9554 326.87 6.94629 325.438 6.21973C324.005 5.47298 322.188 5.09961 319.988 5.09961C317.91 5.09961 316.194 5.41243 314.842 6.03809C313.49 6.66374 312.48 7.51139 311.814 8.58105C311.169 9.65072 310.846 10.8717 310.846 12.2441C310.846 13.1725 311.037 14.0202 311.421 14.7871C311.825 15.5339 312.44 16.2301 313.268 16.876C314.115 17.5218 315.185 18.1172 316.477 18.6621C317.788 19.207 319.353 19.7318 321.169 20.2363C323.672 20.9427 325.831 21.7298 327.647 22.5977C329.464 23.4655 330.957 24.4443 332.128 25.5342C333.319 26.6038 334.197 27.8249 334.762 29.1973C335.347 30.5495 335.64 32.0833 335.64 33.7988C335.64 35.5951 335.276 37.2197 334.55 38.6729C333.823 40.126 332.784 41.3672 331.432 42.3965C330.079 43.4258 328.455 44.223 326.558 44.7881C324.681 45.333 322.582 45.6055 320.261 45.6055C318.222 45.6055 316.214 45.3229 314.236 44.7578C312.279 44.1927 310.493 43.3451 308.878 42.2148C307.284 41.0846 306.002 39.6921 305.033 38.0371C304.085 36.362 303.61 34.4245 303.61 32.2246H309.423C309.423 33.7383 309.715 35.04 310.301 36.1299C310.886 37.1995 311.683 38.0876 312.692 38.7939C313.722 39.5003 314.882 40.0251 316.174 40.3682C317.486 40.6911 318.848 40.8525 320.261 40.8525C322.299 40.8525 324.025 40.57 325.438 40.0049C326.85 39.4398 327.92 38.6325 328.646 37.583C329.393 36.5335 329.767 35.2923 329.767 33.8594ZM361.735 0.921875L343.359 48.7842H338.546L356.952 0.921875H361.735ZM389.193 25.8672L367.669 17.4814V11.6992L393.522 23.1426V26.6846L389.193 25.8672ZM367.669 33.2539L389.254 24.6865L393.522 24.0508V27.5625L367.669 39.0361V33.2539Z" fill="#10486D"/>
</svg>
